<svg width="100" height="30" xmlns="http://www.w3.org/2000/svg">

 <g>
  <title>background</title>
  <rect fill="none" id="canvas_background" height="402" width="582" y="-1" x="-1"/>
 </g>
 <g>
  <title>Layer 1</title>
  <rect id="svg_1" height="30" width="100" fill="#2E6DAD" x="0"/>
  <rect id="svg_2" height="25" width="95" stroke-width="1.2" stroke="#FFFFFF" fill="#2E6DAD" y="2.666" x="2.5"/>
  <g id="svg_3">
   <path id="svg_4" d="m16.445,14.987c-0.005,-0.646 -0.503,-1.167 -1.112,-1.162l-7.778,0.054c-0.61,0.005 -1.099,0.533 -1.095,1.177l0.038,5.534c0.003,0.648 0.502,1.167 1.112,1.162l7.777,-0.054c0.61,-0.005 1.102,-0.531 1.097,-1.179l-0.039,-5.532z" fill="#FFFFFF"/>
   <path id="svg_5" d="m11.297,8.58c-1.172,0.007 -2.272,0.628 -3.021,1.704c-0.649,0.935 -1,2.151 -0.99,3.424c0.02,2.85 1.807,5.079 4.065,5.079l0.016,0l0.006,0c1.17,-0.008 2.271,-0.63 3.018,-1.705c0.649,-0.934 1.001,-2.151 0.99,-3.424c-0.018,-2.849 -1.805,-5.078 -4.084,-5.078zm0.067,9.036c-1.533,0.012 -2.789,-1.742 -2.805,-3.916c-0.017,-2.173 1.212,-3.943 2.745,-3.952c1.532,-0.01 2.789,1.744 2.805,3.917c0.018,2.174 -1.211,3.943 -2.745,3.951z" fill="#FFFFFF"/>
   <g id="svg_6">
    <g id="svg_7">
     <path id="svg_8" d="m12.271,17.451c-0.003,-0.451 -0.37,-0.814 -0.822,-0.811c-0.449,0.003 -0.813,0.371 -0.808,0.821c0.002,0.365 0.248,0.662 0.581,0.763l0.007,1.062l0.451,-0.003l-0.007,-1.056c0.344,-0.097 0.6,-0.402 0.598,-0.776z" fill="#2E6DAD"/>
    </g>
   </g>
  </g>
  <text x="-10" y="-1" id="svg_9" font-size="10.5703" font-family="'MicrosoftYaHei'" fill="#FFFFFF" transform="matrix(0.9487179517745972,0,0,1,29.122433406247847,20.709) ">CONFIDENTIAL</text>
 </g>
</svg>