<?xml version="1.0" encoding="utf-8"?>
<!-- Generator: Adobe Illustrator 16.0.0, SVG Export Plug-In . SVG Version: 6.00 Build 0)  -->
<!DOCTYPE svg PUBLIC "-//W3C//DTD SVG 1.1//EN" "http://www.w3.org/Graphics/SVG/1.1/DTD/svg11.dtd">
<svg version="1.1" id="图层_1" xmlns="http://www.w3.org/2000/svg" xmlns:xlink="http://www.w3.org/1999/xlink" x="0px" y="0px"
	 width="100px" height="30px" viewBox="0 0 100 30" enable-background="new 0 0 100 30" xml:space="preserve">
<rect x="0" fill="#2E6DAD" width="100" height="30"/>
<rect x="2.5" y="2.666" fill="#2E6DAD" stroke="#FFFFFF" stroke-width="1.2" width="95" height="25"/>
<rect x="17.801" y="9.195" transform="matrix(-0.0885 -0.9961 0.9961 -0.0885 12.6068 42.4844)" fill="none" stroke="#FFFFFF" stroke-width="0.8" width="15.883" height="12.558"/>
<polyline fill="none" stroke="#FFFFFF" stroke-width="0.6" points="22.078,11.864 23.062,13.261 23.907,11.638 24.892,13.036 
	25.681,11.518 26.666,12.917 27.567,11.184 28.623,12.683 29.242,11.49 "/>
<polyline fill="none" stroke="#FFFFFF" stroke-width="0.6" points="22.299,15.195 23.284,16.593 24.129,14.968 25.114,16.365 
	25.904,14.85 26.888,16.246 27.791,14.515 28.844,16.012 29.465,14.82 "/>
<polyline fill="none" stroke="#FFFFFF" stroke-width="0.6" points="22.382,18.326 23.366,19.723 24.211,18.1 25.195,19.496 
	25.986,17.981 26.97,19.379 27.872,17.646 28.926,19.144 29.546,17.951 "/>
<text transform="matrix(1 0 0 1 41.333 19.084)" fill="#FFFFFF" font-family="'MicrosoftYaHei'" font-size="12">DRAFT</text>
</svg>
